<?xml version="1.0" encoding="UTF-8" standalone="no"?>
<svg
   xmlns:dc="http://purl.org/dc/elements/1.1/"
   xmlns:cc="http://creativecommons.org/ns#"
   xmlns:rdf="http://www.w3.org/1999/02/22-rdf-syntax-ns#"
   xmlns:svg="http://www.w3.org/2000/svg"
   xmlns="http://www.w3.org/2000/svg"
   xmlns:sodipodi="http://sodipodi.sourceforge.net/DTD/sodipodi-0.dtd"
   xmlns:inkscape="http://www.inkscape.org/namespaces/inkscape"
   version="1.1"
   width="1350.3809"
   height="639.3783"
   viewBox="0 0 216.04068 160.81962"
   id="svg2"
   sodipodi:version="0.32"
   inkscape:version="0.91 r13725"
   sodipodi:docname="traces.svg"
   inkscape:output_extension="org.inkscape.output.svg.inkscape"
   sodipodi:modified="true"
   inkscape:export-filename="/Users/pcipov/Desktop/traces.png"
   inkscape:export-xdpi="19.99"
   inkscape:export-ydpi="19.99">
  <metadata
     id="metadata35">
    <rdf:RDF>
      <cc:Work
         rdf:about="">
        <dc:format>image/svg+xml</dc:format>
        <dc:type
           rdf:resource="http://purl.org/dc/dcmitype/StillImage" />
        <dc:title />
      </cc:Work>
    </rdf:RDF>
  </metadata>
  <defs
     id="defs33" />
  <sodipodi:namedview
     inkscape:window-height="971"
     inkscape:window-width="1913"
     inkscape:pageshadow="2"
     inkscape:pageopacity="0.0"
     guidetolerance="10.0"
     gridtolerance="10.0"
     objecttolerance="10.0"
     borderopacity="1.0"
     bordercolor="#666666"
     pagecolor="#ffffff"
     id="base"
     inkscape:zoom="0.44547727"
     inkscape:cx="33.95162"
     inkscape:cy="303.18198"
     inkscape:window-x="0"
     inkscape:window-y="23"
     inkscape:current-layer="svg2"
     showgrid="false"
     fit-margin-top="10"
     fit-margin-left="10"
     fit-margin-right="10"
     fit-margin-bottom="10"
     inkscape:window-maximized="0" />
  <path
     d="m 27.933617,2.5152501 c -24.6020001,0 -29.2170001,35.0409999 -15.377,35.0409999 13.838,0 39.98,-35.0409999 15.377,-35.0409999 z"
     id="path8"
     inkscape:connector-curvature="0" />
  <path
     d="m -12.917384,33.21425 c 7.3690007,0.45 15.4540009,-28.1219999 1.604,-26.3249999 -13.845001,1.7970004 -8.976,25.8749999 -1.604,26.3249999 z"
     id="path10"
     inkscape:connector-curvature="0" />
  <path
     d="m -46.689383,50.96825 c 5.241,-2.307 0.675,-24.872 -8.237,-18.718 -8.908,6.155 2.996,21.024 8.237,18.718 z"
     id="path12"
     inkscape:connector-curvature="0" />
  <path
     d="m -31.922384,39.15725 c 6.238999,-1.272 6.580999,-26.864 -4.544999,-22.273 -11.128,4.592 -1.689,23.547 4.544999,22.273 l 0,0 z"
     id="path14"
     inkscape:connector-curvature="0" />
  <path
     d="m -14.687724,139.84171 c -8.050894,-1.57715 -17.217714,-17.01 -4.110248,-54.330239 C -5.6905053,48.191237 10.885533,94.197532 7.9244409,59.342001 5.4493869,30.20771 -44.014536,39.19111 -49.621492,84.7463 c -3.79534,30.81161 15.62264,73.55808 35.884028,73.55808 9.9675599,0 21.4645109,-16.32849 23.615448,-37.01359 0.04579,-24.157716 -16.5148143,20.12807 -24.565708,18.55092 z"
     id="path16"
     inkscape:connector-curvature="0"
     sodipodi:nodetypes="zzscscz" />
  <text
     xml:space="preserve"
     style="font-style:normal;font-variant:normal;font-weight:normal;font-stretch:normal;font-size:19.48348236px;line-height:125%;font-family:Chalkboard;-inkscape-font-specification:Chalkboard;letter-spacing:0px;word-spacing:0px;fill:#000000;fill-opacity:1;stroke:none;stroke-width:1px;stroke-linecap:butt;stroke-linejoin:miter;stroke-opacity:1"
     x="38.288666"
     y="115.34097"
     id="text4157"
     sodipodi:linespacing="125%"
     transform="scale(0.98106515,1.0193003)"><tspan
       sodipodi:role="line"
       id="tspan4159"
       x="38.288666"
       y="115.34097"
       style="font-style:normal;font-variant:normal;font-weight:normal;font-stretch:normal;font-size:87.67566681px;font-family:Chalkboard;-inkscape-font-specification:Chalkboard">Traces</tspan></text>
</svg>
